<svg width="123" height="54" viewBox="0 0 123 54" fill="none" xmlns="http://www.w3.org/2000/svg">
<path d="M78.4213 16.0849C78.4315 17.5028 78.1525 18.908 77.6014 20.2145C77.0502 21.521 76.2385 22.7014 75.2158 23.6837C74.1869 24.6858 72.9751 25.481 71.6462 26.0258C70.322 26.5668 68.9046 26.8426 67.4742 26.8378C66.0272 26.843 64.5931 26.5647 63.2532 26.0184C61.9289 25.4826 60.7231 24.6913 59.7044 23.6898C58.6851 22.7103 57.8755 21.5338 57.3249 20.2317C56.4913 18.2577 56.2724 16.0781 56.697 13.9777C57.1215 11.8774 58.1696 9.95386 59.7044 8.4585C60.7247 7.45749 61.9325 6.6678 63.2587 6.13475C65.9599 5.07093 68.964 5.07093 71.6652 6.13475C72.9894 6.66836 74.1953 7.45802 75.2139 8.45847C76.2324 9.45893 77.0435 10.6505 77.6008 11.965C78.1476 13.2694 78.4266 14.6705 78.4213 16.0849ZM74.9498 16.0849C74.9542 15.0729 74.7616 14.0697 74.383 13.1311C74.0074 12.2019 73.4532 11.3553 72.7517 10.6395C72.07 9.92753 71.2506 9.36175 70.3433 8.97658C69.436 8.59142 68.4598 8.39492 67.4742 8.39906C65.9813 8.40912 64.5251 8.86319 63.2911 9.70348C62.0571 10.5438 61.101 11.7323 60.5446 13.1177C60.1693 14.0619 59.9791 15.0694 59.9845 16.0855C59.9787 17.093 60.169 18.092 60.5446 19.0269C60.918 19.9516 61.4698 20.7936 62.1685 21.5051C62.8545 22.2191 63.6787 22.7859 64.5909 23.171C65.5031 23.5561 66.4841 23.7513 67.4742 23.7449C68.453 23.749 69.4223 23.5536 70.3231 23.1707C71.2344 22.7808 72.0597 22.2148 72.7517 21.5051C74.1692 20.0591 74.959 18.1122 74.9498 16.0873V16.0849Z" fill="#353531"/>
<path d="M84.9312 13.019V20.4952C84.9312 21.7834 85.1968 22.7073 85.7279 23.267C86.259 23.8267 87.1222 24.1067 88.3176 24.1071C89.5126 24.1071 90.376 23.8271 90.9079 23.267C91.4398 22.7069 91.7054 21.7829 91.7046 20.4952V13.019H94.7423V19.5846C94.7423 22.1233 94.2336 23.9666 93.2164 25.1146C92.1991 26.2626 90.5752 26.8365 88.3446 26.8365C86.0764 26.8365 84.4338 26.2673 83.417 25.1287C82.4002 23.9901 81.8915 22.1421 81.8911 19.5846V15.3336C81.8911 14.7198 82.1349 14.1312 82.5688 13.6971C83.0028 13.2631 83.5913 13.0192 84.2051 13.019H84.9312Z" fill="#353531"/>
<path d="M101.884 15.1332C102.211 14.2556 102.643 13.6069 103.179 13.1869C103.716 12.7669 104.381 12.5569 105.174 12.5569C105.601 12.5567 106.027 12.6086 106.441 12.7114C106.864 12.8166 107.275 12.9668 107.667 13.1593L106.575 15.7331C106.318 15.5487 106.032 15.4091 105.728 15.3201C105.398 15.2278 105.056 15.183 104.713 15.1871C103.705 15.1871 102.981 15.5907 102.543 16.398C102.105 17.2053 101.886 18.5608 101.886 20.4646V26.2862H98.8455V12.9884H101.148C101.343 12.9884 101.53 13.0658 101.668 13.2037C101.806 13.3417 101.883 13.5287 101.883 13.7237L101.884 15.1332Z" fill="#353531"/>
<path d="M63.4867 49.0243H58.2539V29.9722C58.2538 29.7828 58.2911 29.5952 58.3635 29.4202C58.4359 29.2452 58.5421 29.0862 58.676 28.9522C58.8099 28.8183 58.9689 28.712 59.1439 28.6395C59.3189 28.567 59.5064 28.5297 59.6958 28.5297H64.0915C66.3793 28.5297 67.9844 28.6416 68.9069 28.8655C69.8294 29.0894 70.6134 29.4722 71.2589 30.0139C72.0169 30.6429 72.6096 31.4478 72.9851 32.3585C73.3814 33.2981 73.5798 34.3411 73.5802 35.4875C73.5802 36.7102 73.3843 37.7857 72.9925 38.7139C72.6219 39.6145 72.0236 40.4034 71.2564 41.0033C70.6501 41.4644 69.9539 41.7934 69.2127 41.9691C68.4283 42.1652 67.1731 42.2632 65.447 42.2632H63.486L63.4867 49.0243ZM63.8598 38.0165L64.5511 37.7554C65.8948 37.7554 66.8326 37.5716 67.3645 37.2039C67.8964 36.8362 68.162 36.2087 68.1611 35.3214C68.1611 34.4635 67.8999 33.8521 67.3774 33.4873C66.8548 33.1224 65.9309 32.9404 64.6056 32.9412H63.4867L62.7066 37.047C62.6776 37.1981 62.6894 37.3541 62.741 37.499C62.7925 37.644 62.8818 37.7725 62.9996 37.8713C63.1175 37.9701 63.2595 38.0357 63.4112 38.0612C63.5629 38.0868 63.7186 38.0713 63.8623 38.0165H63.8598Z" fill="#353531"/>
<path d="M90.7319 34.8851V49.0244H86.1543V46.7288C85.5006 47.7093 84.7652 48.4279 83.9482 48.8846C83.1311 49.3414 82.171 49.57 81.068 49.5704C79.183 49.5704 77.6757 48.8822 76.5461 47.5058C75.4165 46.1295 74.8519 44.2839 74.8523 41.9691C74.8523 39.6637 75.4426 37.8321 76.6233 36.4741C77.804 35.1161 79.393 34.4371 81.3903 34.4371C82.4525 34.4371 83.3693 34.6635 84.1406 35.1161C84.9119 35.5688 85.5723 36.2666 86.1218 37.2095C86.1218 36.5931 86.3666 36.002 86.8024 35.5661C87.2381 35.1302 87.8292 34.8853 88.4455 34.8851H90.7319ZM86.3497 41.9409C86.3497 40.8379 86.0558 39.9653 85.4679 39.323C84.88 38.6808 84.0775 38.3589 83.0602 38.3572C82.043 38.3572 81.2426 38.6769 80.6592 39.3163C80.0758 39.9557 79.7852 40.8305 79.7872 41.9409C79.7872 43.044 80.0814 43.9119 80.6697 44.5447C81.258 45.1776 82.0558 45.495 83.0633 45.497C84.0805 45.497 84.8831 45.1796 85.471 44.5447C86.0589 43.9099 86.3518 43.0419 86.3497 41.9409Z" fill="#353531"/>
<path d="M109.729 27.3255V49.0244H105.137V46.7288C104.502 47.6803 103.787 48.3919 102.992 48.8638C102.192 49.337 101.277 49.5814 100.347 49.5704C98.3589 49.5704 96.7771 48.8844 95.6013 47.5126C94.4255 46.1407 93.8374 44.2929 93.837 41.9691C93.837 39.7222 94.4227 37.9042 95.5939 36.5152C96.7652 35.1261 98.2936 34.4331 100.179 34.4359C101.373 34.4359 102.346 34.6506 103.098 35.08C103.849 35.5093 104.52 36.2294 105.109 37.2401C105.053 36.9043 105.011 36.5241 104.983 36.0997C104.955 35.6752 104.941 35.2154 104.941 34.7203L105.207 30.7615C105.243 30.2241 105.434 29.7087 105.757 29.2773C106.079 28.8459 106.519 28.5169 107.025 28.3299L109.729 27.3255ZM105.305 41.9716C105.305 40.8685 105.013 40.0006 104.43 39.3678C103.847 38.7349 103.05 38.4175 102.04 38.4155C101.032 38.4155 100.239 38.7329 99.6599 39.3678C99.081 40.0026 98.7918 40.8706 98.7922 41.9716C98.7922 43.082 99.0782 43.9522 99.6501 44.5821C100.222 45.2121 101.019 45.5271 102.04 45.5271C103.048 45.5271 103.845 45.2099 104.43 44.5754C105.015 43.9409 105.307 43.0722 105.305 41.9691V41.9716Z" fill="#353531"/>
<path d="M113.313 30.4754C113.307 30.1093 113.378 29.746 113.521 29.409C113.664 29.0719 113.876 28.7687 114.144 28.5187C114.666 28.013 115.368 27.7351 116.095 27.7459C116.861 27.7545 117.504 28.0158 118.023 28.5297C118.55 29.0522 118.814 29.7008 118.814 30.4754C118.821 30.8419 118.753 31.206 118.615 31.5455C118.477 31.8849 118.27 32.1927 118.009 32.4498C117.757 32.7121 117.453 32.9195 117.117 33.0592C116.781 33.1989 116.42 33.2679 116.056 33.2618C115.31 33.2618 114.666 32.9864 114.125 32.4357C113.864 32.1807 113.657 31.8756 113.518 31.5387C113.378 31.2017 113.309 30.84 113.313 30.4754Z" fill="url(#paint0_linear_6159_3594)"/>
<path d="M113.565 49.0244L113.538 37.9565C113.537 37.4851 113.69 37.0262 113.973 36.6496C114.257 36.273 114.655 35.9992 115.109 35.8699L118.563 34.8851V49.0244H113.565Z" fill="#353531"/>
<path d="M27.2214 19.413C29.137 17.6629 31.2818 16.3423 33.7888 15.6829C37.7108 14.6509 41.3698 15.2067 44.6526 17.6555C47.0101 19.4136 48.4631 21.7834 49.0373 24.6629C49.8995 28.9918 48.7468 32.8892 46.3893 36.5048C44.8794 38.8236 42.9919 40.8018 40.9066 42.6071C39.3709 43.9369 37.8578 45.2936 36.3381 46.6418C35.2167 47.637 34.1062 48.6445 32.9799 49.6335C32.4247 50.1207 31.8977 50.1238 31.3253 49.6427C31.0088 49.3675 30.718 49.0642 30.4564 48.7364C30.3266 48.5694 30.2558 48.3641 30.2552 48.1527C30.2545 47.9412 30.324 47.7355 30.4527 47.5678C30.75 47.1606 31.0791 46.7776 31.4369 46.4224C33.761 44.1873 36.093 41.9608 38.4327 39.7428C40.507 37.7678 42.4416 35.6855 43.7028 33.0633C44.622 31.1562 45.1018 29.1542 44.9995 27.0388C44.8953 24.8774 44.2641 22.8931 42.756 21.2784C41.6319 20.0547 40.1246 19.2503 38.4823 18.9975C35.3821 18.4926 32.695 19.5405 30.1867 21.2367C29.9239 21.4151 29.6763 21.6167 29.395 21.8275C30.2717 22.806 30.8792 23.9955 31.158 25.2794C31.4859 26.7452 31.3989 28.151 30.4613 29.4244C28.9575 31.4663 26.1177 31.6838 24.3038 29.9147C23.1769 28.8153 22.8907 27.4984 23.0954 26.0037C23.3013 24.495 23.9533 23.194 24.9111 22.0303C24.9355 21.9928 24.956 21.953 24.9724 21.9114C23.1517 20.3616 21.1068 19.2617 18.7254 18.935C16.1406 18.5802 13.8463 19.269 12.0017 21.1681C10.8448 22.3594 10.1811 23.8222 9.9084 25.4577C9.23738 29.4845 10.4691 32.9952 12.8352 36.1959C14.2869 38.1612 16.0965 39.7716 17.9006 41.3937C19.9535 43.2401 22.0389 45.0565 23.8516 47.1504C24.0936 47.4305 24.2511 47.8055 24.3663 48.1628C24.419 48.3252 24.3265 48.5979 24.2058 48.74C23.8724 49.1316 23.5188 49.5177 23.118 49.837C22.6517 50.2047 22.1198 50.1317 21.67 49.7408C19.2139 47.6078 16.7571 45.4785 14.2998 43.3529C11.6567 41.072 9.26434 38.5797 7.56687 35.4894C6.55329 33.6436 5.82467 31.69 5.55074 29.6064C5.03047 25.6422 5.83753 22.0211 8.56329 18.9718C10.2847 17.0458 12.4374 15.8318 14.9812 15.3881C18.8835 14.7073 22.3349 15.89 25.5153 18.074C25.815 18.2793 26.0975 18.5097 26.3824 18.7346C26.657 18.9491 26.926 19.1728 27.2214 19.413ZM27.0578 24.0146C26.2752 24.8664 25.8076 25.796 25.8971 26.9462C25.951 27.6412 26.6024 28.2791 27.23 28.2515C27.8575 28.2239 28.3943 27.6081 28.4262 26.9113C28.4795 25.7231 28.0094 24.783 27.0578 24.0146Z" fill="#10BBB5"/>
<path d="M20.7735 13.9051C23.1609 13.9051 25.0963 11.9698 25.0963 9.5824C25.0963 7.19503 23.1609 5.25967 20.7735 5.25967C18.3862 5.25967 16.4508 7.19503 16.4508 9.5824C16.4508 11.9698 18.3862 13.9051 20.7735 13.9051Z" fill="url(#paint1_linear_6159_3594)"/>
<path d="M34.8625 13.5846C37.2499 13.5846 39.1853 11.6493 39.1853 9.26188C39.1853 6.8745 37.2499 4.93915 34.8625 4.93915C32.4751 4.93915 30.5398 6.8745 30.5398 9.26188C30.5398 11.6493 32.4751 13.5846 34.8625 13.5846Z" fill="url(#paint2_linear_6159_3594)"/>
<defs>
<linearGradient id="paint0_linear_6159_3594" x1="113.313" y1="30.5036" x2="118.814" y2="30.5036" gradientUnits="userSpaceOnUse">
<stop stop-color="#10BBB5"/>
<stop offset="1" stop-color="#52BE94"/>
</linearGradient>
<linearGradient id="paint1_linear_6159_3594" x1="16.4508" y1="9.5824" x2="25.0963" y2="9.5824" gradientUnits="userSpaceOnUse">
<stop stop-color="#10BBB5"/>
<stop offset="1" stop-color="#52BE94"/>
</linearGradient>
<linearGradient id="paint2_linear_6159_3594" x1="30.5398" y1="9.26188" x2="39.1853" y2="9.26188" gradientUnits="userSpaceOnUse">
<stop stop-color="#10BBB5"/>
<stop offset="1" stop-color="#52BE94"/>
</linearGradient>
</defs>
</svg>
