<svg width="67" height="67" viewBox="0 0 67 67" fill="none" xmlns="http://www.w3.org/2000/svg">
<rect width="66.2783" height="66.2783" rx="33.1391" fill="white"/>
<path d="M33.1392 17.0137C41.9962 17.0137 49.2639 23.896 49.2642 32.4883C49.2642 41.0808 41.9963 47.9639 33.1392 47.9639C32.0954 47.9651 31.0548 47.8683 30.0298 47.6758C29.6741 47.609 29.448 47.567 29.2798 47.5439C29.1543 47.5247 29.0283 47.5719 28.981 47.5977C28.8092 47.6792 28.5802 47.8001 28.23 47.9863C26.0824 49.1284 23.5763 49.5335 21.1597 49.084C20.7697 49.0113 20.4469 48.7386 20.3101 48.3662C20.1732 47.9937 20.2424 47.5765 20.4927 47.2686C21.1944 46.4055 21.6768 45.3653 21.8901 44.2461C21.9477 43.9383 21.817 43.5201 21.4155 43.1123C18.6936 40.3481 17.0142 36.6096 17.0142 32.4883C17.0144 23.896 24.2822 17.0137 33.1392 17.0137ZM27.1392 31.6387C26.3107 31.6387 25.6392 32.3102 25.6392 33.1387C25.6392 33.9671 26.3107 34.6387 27.1392 34.6387H27.1528C27.9812 34.6386 28.6528 33.967 28.6528 33.1387C28.6528 32.3103 27.9812 31.6388 27.1528 31.6387H27.1392ZM33.1323 31.6387C32.3039 31.6387 31.6323 32.3103 31.6323 33.1387C31.6323 33.9671 32.3039 34.6386 33.1323 34.6387H33.146C33.9744 34.6386 34.646 33.9671 34.646 33.1387C34.646 32.3103 33.9744 31.6387 33.146 31.6387H33.1323ZM39.1255 31.6387C38.2972 31.6388 37.6255 32.3103 37.6255 33.1387C37.6255 33.967 38.2972 34.6386 39.1255 34.6387H39.1392C39.9676 34.6387 40.6392 33.9671 40.6392 33.1387C40.6392 32.3102 39.9676 31.6387 39.1392 31.6387H39.1255Z" fill="#006AB4"/>
</svg>
