<svg width="67" height="67" viewBox="0 0 67 67" fill="none" xmlns="http://www.w3.org/2000/svg">
<rect width="66.2783" height="66.2783" rx="33.1391" fill="white"/>
<path fill-rule="evenodd" clip-rule="evenodd" d="M30.1392 34.6387C30.1392 33.8102 30.8107 33.1387 31.6392 33.1387H39.1392C39.9676 33.1387 40.6392 33.8102 40.6392 34.6387C40.6392 35.4671 39.9676 36.1387 39.1392 36.1387H31.6392C30.8107 36.1387 30.1392 35.4671 30.1392 34.6387ZM25.6392 34.6387C25.6392 33.8102 26.3107 33.1387 27.1392 33.1387H27.1526C27.9811 33.1387 28.6526 33.8102 28.6526 34.6387C28.6526 35.4671 27.9811 36.1387 27.1526 36.1387H27.1392C26.3107 36.1387 25.6392 35.4671 25.6392 34.6387ZM25.6392 40.6387C25.6392 39.8102 26.3107 39.1387 27.1392 39.1387H34.6392C35.4676 39.1387 36.1392 39.8102 36.1392 40.6387C36.1392 41.4671 35.4676 42.1387 34.6392 42.1387H27.1392C26.3107 42.1387 25.6392 41.4671 25.6392 40.6387ZM37.6257 40.6387C37.6257 39.8102 38.2973 39.1387 39.1257 39.1387H39.1392C39.9676 39.1387 40.6392 39.8102 40.6392 40.6387C40.6392 41.4671 39.9676 42.1387 39.1392 42.1387H39.1257C38.2973 42.1387 37.6257 41.4671 37.6257 40.6387Z" fill="#006AB4"/>
<path d="M25.6392 18.1387C25.6392 17.3102 24.9676 16.6387 24.1392 16.6387C23.3107 16.6387 22.6392 17.3102 22.6392 18.1387V18.8119C23.2096 18.631 23.8175 18.5018 24.4622 18.4081C24.8341 18.354 25.2262 18.3108 25.6392 18.2763V18.1387Z" fill="#006AB4"/>
<path d="M43.6392 18.8119C43.0687 18.631 42.4609 18.5018 41.8162 18.4081C41.4442 18.354 41.0521 18.3108 40.6392 18.2763V18.1387C40.6392 17.3102 41.3107 16.6387 42.1392 16.6387C42.9676 16.6387 43.6392 17.3102 43.6392 18.1387V18.8119Z" fill="#006AB4"/>
<path fill-rule="evenodd" clip-rule="evenodd" d="M34.6823 18.1387H31.596C28.6736 18.1386 26.3163 18.1386 24.4622 18.4081C22.5272 18.6893 20.9244 19.2904 19.6662 20.6506C18.4234 21.9941 17.8883 23.6778 17.6354 25.7117C17.3891 27.6921 17.3891 30.2198 17.3892 33.3995V34.3779C17.3891 37.5576 17.3891 40.0853 17.6354 42.0657C17.8883 44.0996 18.4234 45.7832 19.6662 47.1268C20.9244 48.487 22.5272 49.088 24.4622 49.3693C26.3163 49.6388 28.6736 49.6387 31.596 49.6387H34.6823C37.6047 49.6387 39.962 49.6388 41.8162 49.3693C43.7511 49.088 45.354 48.487 46.6121 47.1268C47.8549 45.7832 48.39 44.0996 48.6429 42.0657C48.8892 40.0853 48.8892 37.5576 48.8892 34.3778V33.3995C48.8892 30.2198 48.8892 27.6921 48.6429 25.7117C48.39 23.6778 47.8549 21.9941 46.6121 20.6506C45.354 19.2904 43.7511 18.6893 41.8162 18.4081C39.962 18.1386 37.6048 18.1386 34.6823 18.1387ZM21.8859 28.6387C21.198 28.6387 20.854 28.6387 20.6349 28.8549C20.4159 29.0712 20.4115 29.4108 20.4027 30.0899C20.3896 31.0997 20.3892 32.2299 20.3892 33.5035V34.2738C20.3892 37.5811 20.3919 39.9218 20.6125 41.6955C20.8291 43.4371 21.2331 44.4027 21.8685 45.0896C22.4885 45.7599 23.3362 46.1741 24.8937 46.4005C26.507 46.635 28.6455 46.6387 31.7142 46.6387H34.5642C37.6328 46.6387 39.7713 46.635 41.3847 46.4005C42.9421 46.1741 43.7898 45.7599 44.4098 45.0896C45.0452 44.4027 45.4493 43.4371 45.6659 41.6955C45.8864 39.9218 45.8892 37.5811 45.8892 34.2738V33.5035C45.8892 32.2299 45.8888 31.0997 45.8757 30.0899C45.8669 29.4108 45.8625 29.0712 45.6434 28.8549C45.4243 28.6387 45.0804 28.6387 44.3924 28.6387H21.8859Z" fill="#006AB4"/>
</svg>
