<svg width="16" height="17" viewBox="0 0 16 17" fill="none" xmlns="http://www.w3.org/2000/svg">
<path d="M10.3537 13.1465C10.4001 13.193 10.437 13.2481 10.4621 13.3088C10.4872 13.3695 10.5002 13.4346 10.5002 13.5003C10.5002 13.566 10.4872 13.631 10.4621 13.6917C10.437 13.7524 10.4001 13.8076 10.3537 13.854C10.3072 13.9005 10.252 13.9373 10.1914 13.9625C10.1307 13.9876 10.0656 14.0006 9.99991 14.0006C9.93421 14.0006 9.86915 13.9876 9.80846 13.9625C9.74776 13.9373 9.69261 13.9005 9.64615 13.854L4.64615 8.85403C4.59967 8.80759 4.56279 8.75245 4.53763 8.69175C4.51246 8.63105 4.49951 8.56599 4.49951 8.50028C4.49951 8.43457 4.51246 8.36951 4.53763 8.30881C4.56279 8.24811 4.59967 8.19296 4.64615 8.14653L9.64615 3.14653C9.73997 3.05271 9.86722 3 9.99991 3C10.1326 3 10.2598 3.05271 10.3537 3.14653C10.4475 3.24035 10.5002 3.3676 10.5002 3.50028C10.5002 3.63296 10.4475 3.76021 10.3537 3.85403L5.70678 8.50028L10.3537 13.1465Z" fill="currentColor"/>
</svg>
