<svg width="67" height="67" viewBox="0 0 67 67" fill="none" xmlns="http://www.w3.org/2000/svg">
<rect width="66.2783" height="66.2783" rx="33.1391" fill="white"/>
<path fill-rule="evenodd" clip-rule="evenodd" d="M18.7159 16.8527C20.0228 16.4003 21.7634 16.1387 23.6392 16.1387C25.5149 16.1387 27.2556 16.4003 28.5625 16.8527C29.2112 17.0772 29.8076 17.3674 30.2617 17.739C30.7084 18.1046 31.1392 18.6564 31.1392 19.3887V21.1444C31.1392 21.3243 31.1392 21.4143 31.1033 21.4808C31.0751 21.5334 31.0338 21.5746 30.9813 21.6029C30.9147 21.6387 30.8229 21.6387 30.6392 21.6387C28.6422 21.6387 26.7281 21.915 25.2252 22.4352C24.4855 22.6913 23.7083 23.053 23.0666 23.5782C22.6784 23.8959 22.2154 24.3825 21.9243 25.0391C21.8601 25.1838 21.8281 25.2561 21.773 25.2887C21.718 25.3213 21.6466 25.3152 21.5037 25.3031C19.7475 25.1544 18.2658 24.8117 17.152 24.2754C16.93 24.1685 16.7243 24.0551 16.5348 23.9349C16.3535 23.8198 16.2629 23.7623 16.201 23.6498C16.1392 23.5373 16.1392 23.415 16.1392 23.1706V19.3887C16.1392 18.6565 16.5699 18.1046 17.0166 17.739C17.4707 17.3674 18.0672 17.0772 18.7159 16.8527ZM18.2833 19.2867C18.4871 19.12 18.8425 18.9253 19.3701 18.7427C20.4157 18.3807 21.925 18.1387 23.6392 18.1387C25.3533 18.1387 26.8626 18.3807 27.9082 18.7427C28.4358 18.9253 28.7913 19.12 28.995 19.2867C29.0609 19.3406 29.0609 19.4367 28.995 19.4906C28.7913 19.6574 28.4358 19.8521 27.9082 20.0347C26.8626 20.3966 25.3533 20.6387 23.6392 20.6387C21.925 20.6387 20.4157 20.3966 19.3701 20.0347C18.8425 19.8521 18.4871 19.6574 18.2833 19.4906C18.2175 19.4367 18.2175 19.3406 18.2833 19.2867Z" fill="#006AB4"/>
<path d="M21.6392 27.1902C21.6392 27.0146 21.6392 26.9268 21.5868 26.8695C21.5343 26.8122 21.4458 26.8042 21.2687 26.7884C19.4329 26.6241 17.7992 26.2518 16.5013 25.6269C16.4385 25.5967 16.4071 25.5815 16.3867 25.5766C16.2739 25.5489 16.1676 25.6158 16.1435 25.7294C16.1392 25.7499 16.1392 25.7826 16.1392 25.8481V28.9691C16.1392 29.234 16.1392 29.3665 16.2112 29.4857C16.2832 29.6049 16.3857 29.6588 16.5908 29.7666C16.7513 29.851 16.9241 29.931 17.1096 30.0066C18.1709 30.439 19.5646 30.6933 21.2169 30.8103C21.4135 30.8242 21.5118 30.8312 21.5755 30.7719C21.6392 30.7126 21.6392 30.6131 21.6392 30.4141V27.1902Z" fill="#006AB4"/>
<path d="M21.6392 32.7188C21.6392 32.5396 21.6392 32.4501 21.5851 32.3924C21.5311 32.3347 21.4409 32.3288 21.2604 32.317C19.4489 32.1982 17.8306 31.9201 16.5437 31.3957C16.4334 31.3508 16.3783 31.3284 16.339 31.3284C16.2553 31.3284 16.1856 31.3753 16.154 31.4528C16.1392 31.4891 16.1392 31.546 16.1392 31.6596V34.1387C16.1392 34.8881 16.63 35.4118 17.0617 35.7259C17.5153 36.0558 18.1073 36.3113 18.7489 36.5087C19.5384 36.7516 20.4889 36.9325 21.5333 37.0367C21.8981 37.0731 22.0806 37.0913 22.1478 36.9961C22.2151 36.901 22.1275 36.7149 21.9524 36.3427C21.7639 35.942 21.6392 35.4743 21.6392 34.9389V32.7188Z" fill="#006AB4"/>
<path fill-rule="evenodd" clip-rule="evenodd" d="M38.3892 27.1387C35.5756 27.1387 32.9646 27.5311 31.0042 28.2097C30.0312 28.5465 29.1365 28.9817 28.4554 29.5392C27.7853 30.0875 27.1392 30.9153 27.1392 32.0137V35.9598C27.1392 36.6389 27.1392 36.9785 27.326 37.3169C27.5128 37.6553 27.7444 37.8011 28.2074 38.0927C30.4768 39.5215 33.9767 40.2634 38.3893 40.2634C42.8019 40.2634 46.3018 39.5215 48.5711 38.0927C49.034 37.8012 49.2655 37.6555 49.4523 37.3171C49.6392 36.9787 49.6392 36.6391 49.6392 35.9599V32.014C49.6392 30.9157 48.993 30.0875 48.323 29.5392C47.6419 28.9817 46.7472 28.5465 45.7741 28.2097C43.8138 27.5311 41.2028 27.1387 38.3892 27.1387ZM31.9855 31.0447C31.1942 31.3186 30.661 31.6106 30.3554 31.8608C30.2566 31.9416 30.2566 32.0857 30.3554 32.1666C30.661 32.4167 31.1942 32.7087 31.9855 32.9827C33.554 33.5256 35.818 33.8887 38.3892 33.8887C40.9603 33.8887 43.2243 33.5256 44.7928 32.9827C45.5841 32.7087 46.1173 32.4167 46.4229 32.1666C46.5217 32.0857 46.5217 31.9416 46.4229 31.8608C46.1173 31.6106 45.5841 31.3186 44.7928 31.0447C43.2243 30.5017 40.9603 30.1387 38.3892 30.1387C35.818 30.1387 33.554 30.5017 31.9855 31.0447Z" fill="#006AB4"/>
<path d="M38.3893 42.5134C42.6612 42.5134 46.4239 41.856 49.1768 40.3454C49.3869 40.2301 49.492 40.1724 49.5656 40.216C49.6392 40.2596 49.6392 40.3772 49.6392 40.6124V44.839C49.6392 45.9414 48.977 46.7611 48.3102 47.2947C47.6289 47.8398 46.7353 48.2647 45.7643 48.5933C43.8073 49.2557 41.1998 49.639 38.3892 49.639C35.5785 49.639 32.971 49.2557 31.014 48.5933C30.043 48.2647 29.1494 47.8398 28.4682 47.2947C27.8014 46.7611 27.1392 45.9414 27.1392 44.839V40.6122C27.1392 40.377 27.1392 40.2594 27.2128 40.2159C27.2863 40.1723 27.3914 40.23 27.6016 40.3453C30.3545 41.856 34.1173 42.5134 38.3893 42.5134Z" fill="#006AB4"/>
</svg>
