<svg width="32" height="32" viewBox="0 0 32 32" fill="none" xmlns="http://www.w3.org/2000/svg">
<g clip-path="url(#clip0_8313_2342)">
<path d="M32 16C32 7.16253 24.8375 0 16 0C7.16253 0 0 7.16253 0 16C0 23.9875 5.85 30.6063 13.5 31.8063V20.625H9.43747V16H13.5V12.475C13.5 8.4656 15.8875 6.25 19.5437 6.25C21.2937 6.25 23.125 6.5625 23.125 6.5625V10.5H21.1063C19.1187 10.5 18.5 11.7344 18.5 13V16H22.9375L22.2281 20.625H18.5V31.8063C26.15 30.6063 32 23.9875 32 16Z" fill="#ECECED"/>
<path d="M22.2287 20.625L22.938 16H18.5005V13C18.5005 11.7344 19.1193 10.5 21.1068 10.5H23.1255V6.5625C23.1255 6.5625 21.2943 6.25 19.5443 6.25C15.8881 6.25 13.5005 8.4656 13.5005 12.475V16H9.43799V20.625H13.5005V31.8063C14.3161 31.9344 15.1505 32 16.0005 32C16.8505 32 17.6849 31.9344 18.5005 31.8063V20.625H22.2287Z" fill="#003E6A"/>
</g>
<defs>
<clipPath id="clip0_8313_2342">
<rect width="32" height="32" fill="white"/>
</clipPath>
</defs>
</svg>
