<svg width="67" height="67" viewBox="0 0 67 67" fill="none" xmlns="http://www.w3.org/2000/svg">
<rect width="66.2783" height="66.2783" rx="33.1391" fill="white"/>
<path d="M34.0649 18.0842C35.5399 17.014 37.9761 16.3888 40.6406 17.9679C42.544 19.0959 43.5508 21.4051 43.1952 23.9669C42.8364 26.5519 41.1152 29.4067 37.585 31.9311C36.4278 32.7602 35.3759 33.5137 33.8915 33.5137C32.4071 33.5137 31.3552 32.7602 30.198 31.9311C26.6678 29.4067 24.9466 26.5519 24.5878 23.9669C24.2322 21.4051 25.239 19.0959 27.1424 17.9679C29.8069 16.3888 32.2431 17.014 33.7181 18.0842C33.7816 18.1303 33.839 18.1719 33.8915 18.2098C33.944 18.1719 34.0014 18.1303 34.0649 18.0842Z" fill="#006AB4"/>
<path d="M24.072 35.0137C23.4228 35.0136 22.8276 35.0135 22.3434 35.0786C21.8101 35.1503 21.2466 35.319 20.783 35.7825C20.3195 36.2461 20.1508 36.8097 20.0791 37.3429C20.014 37.8271 20.0141 38.4223 20.0142 39.0716L20.0142 42.9839C20.0141 43.4762 20.014 43.9374 20.059 44.3229C20.109 44.7518 20.2247 45.2028 20.5355 45.6192C20.8463 46.0355 21.2457 46.2748 21.6427 46.4448C21.9994 46.5975 22.4416 46.7286 22.9135 46.8686L30.4119 49.0936C31.4986 49.4161 32.6632 49.2758 33.6457 48.7089L44.9191 42.2044C46.3189 41.3967 46.6791 39.5344 45.7469 38.2435C44.7075 36.8043 42.8917 36.17 41.1959 36.6973L41.1937 36.698L38.0055 37.6775C37.6325 37.7921 37.446 37.8494 37.3875 37.957C37.3291 38.0646 37.3988 38.3098 37.5383 38.8002C37.6447 39.174 37.6573 39.5327 37.6391 39.7346C37.6391 41.2066 36.6356 42.3951 35.3392 42.7536L31.5279 43.8073C30.1453 44.1896 28.6645 44.0581 27.37 43.4318L24.9396 42.2558C24.4735 42.0303 24.2785 41.4697 24.504 41.0036C24.7295 40.5375 25.2901 40.3425 25.7562 40.568L28.1866 41.744C29.0695 42.1712 30.0824 42.2616 31.0282 42.0001L34.8396 40.9464C35.3647 40.8012 35.7641 40.3213 35.7641 39.7346C35.7641 37.615 33.9991 37.0765 31.9003 37.0765L30.3364 37.0764C30.0638 37.0764 29.7962 37.0149 29.5554 36.8983L26.4924 35.4163C25.944 35.151 25.3412 35.0137 24.7314 35.0137L24.072 35.0137Z" fill="#006AB4"/>
</svg>
