<svg width="32" height="32" viewBox="0 0 32 32" fill="none" xmlns="http://www.w3.org/2000/svg">
<g clip-path="url(#clip0_8313_2345)">
<path fill-rule="evenodd" clip-rule="evenodd" d="M0 16C0 7.16347 7.16347 0 16 0C24.8365 0 32 7.16347 32 16C32 24.8365 24.8365 32 16 32C7.16347 32 0 24.8365 0 16ZM16.0008 7.46667C13.6833 7.46667 13.3924 7.4768 12.4822 7.5182C11.5737 7.5598 10.9537 7.70367 10.4111 7.91467C9.8498 8.1326 9.37373 8.4242 8.8994 8.89867C8.42473 9.373 8.13313 9.84907 7.91447 10.4101C7.70293 10.9529 7.55893 11.5732 7.51807 12.4813C7.47733 13.3915 7.46667 13.6825 7.46667 16.0001C7.46667 18.3176 7.477 18.6076 7.5182 19.5178C7.56 20.4263 7.7038 21.0463 7.91467 21.5889C8.1328 22.1502 8.42433 22.6263 8.89887 23.1006C9.373 23.5753 9.84907 23.8675 10.41 24.0855C10.9529 24.2965 11.5732 24.4403 12.4815 24.4819C13.3917 24.5234 13.6824 24.5335 15.9997 24.5335C18.3175 24.5335 18.6074 24.5234 19.5177 24.4819C20.4261 24.4403 21.0469 24.2965 21.5899 24.0855C22.1509 23.8675 22.6263 23.5753 23.1004 23.1006C23.5751 22.6263 23.8667 22.1502 24.0853 21.5891C24.2951 21.0463 24.4391 20.4261 24.4818 19.518C24.5227 18.6077 24.5333 18.3176 24.5333 16.0001C24.5333 13.6825 24.5227 13.3917 24.4818 12.4815C24.4391 11.573 24.2951 10.9529 24.0853 10.4103C23.8667 9.84907 23.5751 9.373 23.1004 8.89867C22.6257 8.424 22.1511 8.13247 21.5893 7.91467C21.0453 7.70367 20.4249 7.5598 19.5164 7.5182C18.6061 7.4768 18.3164 7.46667 15.9981 7.46667H16.0008Z" fill="#ECECED"/>
<path fill-rule="evenodd" clip-rule="evenodd" d="M15.2352 9.00409C15.4624 9.00375 15.7159 9.00409 16.0007 9.00409C18.2791 9.00409 18.5492 9.01229 19.4489 9.05315C20.2809 9.09122 20.7325 9.23022 21.0333 9.34702C21.4315 9.50169 21.7155 9.68655 22.0139 9.98522C22.3126 10.2839 22.4975 10.5684 22.6525 10.9666C22.7693 11.267 22.9085 11.7186 22.9464 12.5506C22.9873 13.4502 22.9962 13.7204 22.9962 15.9978C22.9962 18.2751 22.9873 18.5454 22.9464 19.4449C22.9083 20.2769 22.7693 20.7285 22.6525 21.0289C22.4979 21.4272 22.3126 21.7107 22.0139 22.0092C21.7153 22.3079 21.4317 22.4928 21.0333 22.6474C20.7329 22.7648 20.2809 22.9034 19.4489 22.9415C18.5494 22.9824 18.2791 22.9912 16.0007 22.9912C13.7221 22.9912 13.4521 22.9824 12.5525 22.9415C11.7205 22.9031 11.2689 22.764 10.968 22.6472C10.5697 22.4926 10.2853 22.3077 9.98659 22.009C9.68793 21.7104 9.50306 21.4266 9.34806 21.0282C9.23126 20.7278 9.09206 20.2762 9.05419 19.4442C9.01326 18.5446 9.00513 18.2744 9.00513 15.9956C9.00513 13.7168 9.01326 13.448 9.05419 12.5485C9.09219 11.7165 9.23126 11.2649 9.34806 10.9641C9.50273 10.5659 9.68793 10.2814 9.98659 9.98275C10.2853 9.68409 10.5697 9.49922 10.968 9.34415C11.2688 9.22682 11.7205 9.08815 12.5525 9.04995C13.3397 9.01442 13.6448 9.00375 15.2352 9.00195V9.00409ZM20.5558 10.421C19.9905 10.421 19.5318 10.8792 19.5318 11.4446C19.5318 12.01 19.9905 12.4686 20.5558 12.4686C21.1211 12.4686 21.5798 12.01 21.5798 11.4446C21.5798 10.8793 21.1211 10.421 20.5558 10.421ZM16.0007 11.6174C13.5806 11.6174 11.6185 13.5796 11.6185 15.9997C11.6185 18.4198 13.5806 20.3811 16.0007 20.3811C18.4209 20.3811 20.3823 18.4198 20.3823 15.9997C20.3823 13.5796 18.4209 11.6174 16.0007 11.6174Z" fill="#ECECED"/>
<path fill-rule="evenodd" clip-rule="evenodd" d="M16.0005 13.1562C17.5713 13.1562 18.8449 14.4297 18.8449 16.0007C18.8449 17.5716 17.5713 18.8452 16.0005 18.8452C14.4294 18.8452 13.156 17.5716 13.156 16.0007C13.156 14.4297 14.4294 13.1562 16.0005 13.1562Z" fill="#ECECED"/>
</g>
<defs>
<clipPath id="clip0_8313_2345">
<rect width="32" height="32" fill="white"/>
</clipPath>
</defs>
</svg>
