<svg width="32" height="32" viewBox="0 0 32 32" fill="none" xmlns="http://www.w3.org/2000/svg">
<path d="M0.999756 3V29C0.999756 30.1 1.89976 31 2.99976 31H28.9998C30.0998 31 30.9998 30.1 30.9998 29V3C30.9998 1.9 30.0998 1 28.9998 1H2.99976C1.89976 1 0.999756 1.9 0.999756 3ZM9.54976 26H5.99976V12.2H9.54976V26ZM7.79976 9.45C6.79976 9.45 5.99976 8.7 5.99976 7.75C5.99976 6.8 6.79976 6.05 7.79976 6.05C8.79976 6.05 9.59976 6.8 9.59976 7.75C9.54976 8.7 8.74976 9.45 7.79976 9.45ZM25.9998 26H22.4498V19.1C22.4498 17.65 22.3998 16.7 22.2498 16.25C22.0998 15.8 21.8498 15.5 21.5498 15.25C21.1998 15 20.7998 14.9 20.3498 14.9C19.7498 14.9 19.1998 15.05 18.7498 15.4C18.2498 15.75 17.9498 16.2 17.7498 16.75C17.5498 17.3 17.4998 18.35 17.4998 19.85V26H13.1998V12.2H16.7498V14.25C17.9498 12.7 19.4998 11.9 21.3498 11.9C22.1498 11.9 22.8998 12.05 23.5998 12.35C24.2498 12.65 24.7998 13 25.1498 13.45C25.4998 13.9 25.7498 14.4 25.8498 15C25.9998 15.55 26.0498 16.4 26.0498 17.45V26H25.9998Z" fill="white"/>
</svg>
