<svg width="49" height="52" viewBox="0 0 49 52" fill="none" xmlns="http://www.w3.org/2000/svg">
<mask id="mask0_8313_2294" style="mask-type:luminance" maskUnits="userSpaceOnUse" x="0" y="0" width="49" height="52">
<path d="M48.4746 0H0V52H48.4746V0Z" fill="white"/>
</mask>
<g mask="url(#mask0_8313_2294)">
<path d="M36.0955 45.4098L36.801 45.8442C30.9594 51.4669 21.558 54.5879 14.4505 49.2266C7.50821 43.9901 9.40305 33.5531 14.527 27.8097C19.4938 22.2434 28.992 18.1731 36.164 22.4445C36.3763 22.5705 36.3602 22.6469 36.1156 22.6737C27.4883 23.5626 19.385 28.7549 16.6879 37.2855C15.2406 41.8625 15.6075 46.6405 20.163 48.9974C25.1943 51.5996 32.1285 48.6475 36.0955 45.4098Z" fill="#5BD1F7"/>
<path d="M6.53166 26.929C8.9877 28.7487 12.3981 28.317 14.1491 25.9649C15.9001 23.6127 15.3286 20.2308 12.8725 18.4111C10.4166 16.5914 7.00608 17.0231 5.25511 19.3752C3.50413 21.7273 4.07568 25.1093 6.53166 26.929Z" fill="#5BD1F7"/>
<path d="M18.7614 12.5644C13.2946 12.7253 9.1019 7.25145 12.5287 2.39293C15.2244 -0.379533 18.1338 -0.742855 21.2568 1.30298C26.0584 4.45217 24.6393 11.6112 18.7614 12.5644Z" fill="#006AB4"/>
<path d="M40.3139 42.4132C39.271 43.6921 38.1006 44.837 36.8024 45.8479L36.0969 45.4136C40.9306 40.9853 46.3611 32.865 43.5551 26.0036C40.5194 18.5831 30.989 17.6701 24.3935 19.7615C21.6037 20.6463 19.0007 21.8878 16.5845 23.4858C16.3695 23.6279 16.266 23.577 16.2741 23.333C16.3306 21.145 15.5525 19.3204 13.9399 17.8591C13.9225 17.844 13.9103 17.8238 13.9041 17.7998C13.8979 17.7758 13.8978 17.7485 13.9039 17.7197C13.91 17.6909 13.9221 17.6613 13.9394 17.6327C13.9567 17.604 13.9788 17.577 14.0044 17.5535C15.3267 16.3415 16.7109 15.2824 18.1568 14.3761C25.9497 9.50147 37.9595 8.90222 44.0631 17.0346C49.6628 24.4994 46.0023 35.974 40.3139 42.4132Z" fill="#006AB4"/>
<path d="M9.7889 29.2311C9.80969 29.2364 9.82825 29.2474 9.84295 29.2631C9.8576 29.2789 9.86781 29.2988 9.87266 29.3209C9.87751 29.3431 9.87683 29.3668 9.87063 29.3898C9.86442 29.4127 9.85296 29.4343 9.83727 29.4523C8.18439 31.4471 6.84727 33.6512 5.82597 36.0644C5.61633 36.551 5.49134 35.8995 5.48733 35.7788C5.41206 33.3281 5.79371 30.9578 6.63226 28.668C6.654 28.6073 6.6932 28.5557 6.74235 28.523C6.79145 28.4903 6.84701 28.4789 6.89835 28.4911L9.7889 29.2311Z" fill="#006AB4"/>
</g>
</svg>
