<svg width="157" height="40" viewBox="0 0 157 40" fill="none" xmlns="http://www.w3.org/2000/svg">
<mask id="mask0_8333_10970" style="mask-type:luminance" maskUnits="userSpaceOnUse" x="0" y="0" width="38" height="40">
<path d="M37.2881 0H0V40H37.2881V0Z" fill="white"/>
</mask>
<g mask="url(#mask0_8333_10970)">
<path d="M27.7661 34.9311L28.3088 35.2653C23.8153 39.5905 16.5834 41.9913 11.1161 37.8672C5.77592 33.8391 7.23348 25.8106 11.175 21.3926C14.9956 17.1108 22.3019 13.9799 27.8189 17.2655C27.9822 17.3624 27.9698 17.4212 27.7816 17.4418C21.1452 18.1256 14.9119 22.1197 12.8372 28.6817C11.7239 32.2024 12.0061 35.8779 15.5104 37.6908C19.3806 39.6925 24.7146 37.4217 27.7661 34.9311Z" fill="#5BD1F7"/>
<path d="M5.02472 20.7152C6.91398 22.115 9.53738 21.7829 10.8843 19.9736C12.2312 18.1642 11.7916 15.5628 9.90233 14.163C8.0131 12.7632 5.38966 13.0953 4.04276 14.9046C2.69585 16.7139 3.1355 19.3154 5.02472 20.7152Z" fill="#5BD1F7"/>
<path d="M14.4319 9.66496C10.2267 9.78872 7.00155 5.57804 9.63754 1.84072C11.7112 -0.291949 13.9492 -0.571427 16.3515 1.00229C20.045 3.42475 18.9534 8.93172 14.4319 9.66496Z" fill="#006AB4"/>
<path d="M31.0107 32.6249C30.2085 33.6087 29.3082 34.4894 28.3096 35.267L27.7669 34.9329C31.4851 31.5266 35.6624 25.2802 33.504 20.0021C31.1688 14.2941 23.8378 13.5918 18.7643 15.2005C16.6183 15.8812 14.616 16.8361 12.7574 18.0654C12.592 18.1747 12.5124 18.1355 12.5186 17.9479C12.562 16.2648 11.9635 14.8613 10.723 13.7372C10.7096 13.7255 10.7003 13.71 10.6955 13.6915C10.6908 13.6731 10.6907 13.6521 10.6954 13.6299C10.7 13.6078 10.7093 13.585 10.7226 13.563C10.7359 13.5409 10.753 13.5202 10.7726 13.5021C11.7898 12.5698 12.8546 11.7551 13.9668 11.0579C19.9613 7.30822 29.1996 6.84726 33.8948 13.1029C38.2022 18.8451 35.3864 27.6717 31.0107 32.6249Z" fill="#006AB4"/>
<path d="M7.53029 22.486C7.54628 22.49 7.56056 22.4986 7.57187 22.5106C7.58313 22.5228 7.59099 22.538 7.59472 22.5551C7.59845 22.5721 7.59793 22.5904 7.59316 22.608C7.58839 22.6257 7.57956 22.6423 7.5675 22.6561C6.29605 24.1906 5.2675 25.8861 4.48188 27.7424C4.32062 28.1167 4.22447 27.6155 4.22139 27.5227C4.16349 25.6375 4.45706 23.8142 5.10211 22.0528C5.11883 22.0062 5.14898 21.9664 5.18679 21.9413C5.22456 21.9162 5.2673 21.9074 5.30679 21.9167L7.53029 22.486Z" fill="#006AB4"/>
</g>
<path d="M49.8944 27V12.4H51.8544V27H49.8944ZM51.4544 20.5V18.74L57.7144 18.72V20.48L51.4544 20.5ZM51.4544 14.16V12.4H58.0544V14.16H51.4544ZM60.6496 27V16.32H62.1696V20.72H62.0896C62.0896 19.16 62.4296 18.02 63.1096 17.3C63.8029 16.5667 64.8362 16.2 66.2096 16.2H66.5696V17.92H65.8896C64.8229 17.92 64.0029 18.2067 63.4296 18.78C62.8562 19.34 62.5696 20.1533 62.5696 21.22V27H60.6496ZM69.3727 27V16.32H71.2927V27H69.3727ZM67.7327 17.84V16.32H71.2927V17.84H67.7327ZM69.9127 14.6C69.486 14.6 69.166 14.4867 68.9527 14.26C68.7527 14.0333 68.6527 13.7467 68.6527 13.4C68.6527 13.0533 68.7527 12.7667 68.9527 12.54C69.166 12.3133 69.486 12.2 69.9127 12.2C70.3394 12.2 70.6527 12.3133 70.8527 12.54C71.066 12.7667 71.1727 13.0533 71.1727 13.4C71.1727 13.7467 71.066 14.0333 70.8527 14.26C70.6527 14.4867 70.3394 14.6 69.9127 14.6ZM79.545 27.36C78.6117 27.36 77.805 27.2 77.125 26.88C76.445 26.56 75.8917 26.14 75.465 25.62C75.0384 25.0867 74.7184 24.4933 74.505 23.84C74.305 23.1867 74.205 22.52 74.205 21.84V21.48C74.205 20.7867 74.305 20.1133 74.505 19.46C74.7184 18.8067 75.0384 18.22 75.465 17.7C75.8917 17.1667 76.4317 16.7467 77.085 16.44C77.7517 16.12 78.5317 15.96 79.425 15.96C80.585 15.96 81.5384 16.2133 82.285 16.72C83.045 17.2133 83.605 17.8533 83.965 18.64C84.3384 19.4267 84.525 20.2667 84.525 21.16V22.02H75.045V20.58H83.125L82.685 21.36C82.685 20.6 82.565 19.9467 82.325 19.4C82.085 18.84 81.725 18.4067 81.245 18.1C80.765 17.7933 80.1584 17.64 79.425 17.64C78.665 17.64 78.0317 17.8133 77.525 18.16C77.0317 18.5067 76.6584 18.98 76.405 19.58C76.165 20.18 76.045 20.8733 76.045 21.66C76.045 22.42 76.165 23.1067 76.405 23.72C76.6584 24.32 77.045 24.8 77.565 25.16C78.085 25.5067 78.745 25.68 79.545 25.68C80.385 25.68 81.065 25.4933 81.585 25.12C82.1184 24.7467 82.4384 24.3133 82.545 23.82H84.345C84.1984 24.5533 83.905 25.1867 83.465 25.72C83.025 26.2533 82.4717 26.66 81.805 26.94C81.1384 27.22 80.385 27.36 79.545 27.36ZM87.2511 27V16.32H88.7711V20.9H88.5311C88.5311 19.8467 88.6711 18.96 88.9511 18.24C89.2445 17.5067 89.6845 16.9533 90.2711 16.58C90.8578 16.1933 91.5978 16 92.4911 16H92.5711C93.9178 16 94.9111 16.42 95.5511 17.26C96.2045 18.1 96.5311 19.3133 96.5311 20.9V27H94.6111V20.5C94.6111 19.6733 94.3778 19.0133 93.9111 18.52C93.4445 18.0133 92.8045 17.76 91.9911 17.76C91.1511 17.76 90.4711 18.02 89.9511 18.54C89.4311 19.06 89.1711 19.7533 89.1711 20.62V27H87.2511ZM104.504 27.36C103.744 27.36 103.044 27.22 102.404 26.94C101.764 26.66 101.204 26.2667 100.724 25.76C100.257 25.2533 99.8908 24.6667 99.6241 24C99.3708 23.3333 99.2441 22.6133 99.2441 21.84V21.48C99.2441 20.72 99.3708 20.0067 99.6241 19.34C99.8774 18.6733 100.231 18.0867 100.684 17.58C101.151 17.0733 101.697 16.68 102.324 16.4C102.964 16.1067 103.671 15.96 104.444 15.96C105.257 15.96 105.997 16.1333 106.664 16.48C107.331 16.8133 107.877 17.34 108.304 18.06C108.731 18.78 108.971 19.7133 109.024 20.86L108.224 19.58V12.4H110.144V27H108.624V22.26H109.184C109.131 23.4733 108.877 24.46 108.424 25.22C107.971 25.9667 107.397 26.5133 106.704 26.86C106.024 27.1933 105.291 27.36 104.504 27.36ZM104.764 25.68C105.417 25.68 106.011 25.5333 106.544 25.24C107.077 24.9467 107.504 24.5267 107.824 23.98C108.144 23.42 108.304 22.7667 108.304 22.02V21.1C108.304 20.3667 108.137 19.7467 107.804 19.24C107.484 18.72 107.051 18.3267 106.504 18.06C105.971 17.78 105.384 17.64 104.744 17.64C104.037 17.64 103.411 17.8067 102.864 18.14C102.331 18.4733 101.911 18.94 101.604 19.54C101.311 20.14 101.164 20.8467 101.164 21.66C101.164 22.4733 101.317 23.1867 101.624 23.8C101.931 24.4 102.357 24.8667 102.904 25.2C103.451 25.52 104.071 25.68 104.764 25.68ZM113.833 27V16.32H115.353V20.9H115.113C115.113 19.8467 115.253 18.96 115.533 18.24C115.826 17.5067 116.266 16.9533 116.853 16.58C117.44 16.1933 118.18 16 119.073 16H119.153C120.5 16 121.493 16.42 122.133 17.26C122.786 18.1 123.113 19.3133 123.113 20.9V27H121.193V20.5C121.193 19.6733 120.96 19.0133 120.493 18.52C120.026 18.0133 119.386 17.76 118.573 17.76C117.733 17.76 117.053 18.02 116.533 18.54C116.013 19.06 115.753 19.7533 115.753 20.62V27H113.833ZM126.626 31V16.32H128.146V20.94L127.786 20.9C127.853 19.7533 128.093 18.82 128.506 18.1C128.933 17.3667 129.486 16.8267 130.166 16.48C130.846 16.1333 131.586 15.96 132.386 15.96C133.159 15.96 133.859 16.1067 134.486 16.4C135.126 16.6933 135.673 17.0933 136.126 17.6C136.579 18.1067 136.926 18.6933 137.166 19.36C137.406 20.0267 137.526 20.7333 137.526 21.48V21.84C137.526 22.5867 137.399 23.2933 137.146 23.96C136.893 24.6267 136.533 25.2133 136.066 25.72C135.613 26.2267 135.066 26.6267 134.426 26.92C133.799 27.2133 133.106 27.36 132.346 27.36C131.586 27.36 130.859 27.1933 130.166 26.86C129.473 26.5267 128.899 25.9867 128.446 25.24C127.993 24.4933 127.733 23.5133 127.666 22.3L128.546 23.9V31H126.626ZM132.046 25.68C132.766 25.68 133.393 25.5133 133.926 25.18C134.459 24.8333 134.873 24.36 135.166 23.76C135.459 23.1467 135.606 22.4467 135.606 21.66C135.606 20.86 135.459 20.16 135.166 19.56C134.873 18.96 134.459 18.4933 133.926 18.16C133.393 17.8133 132.766 17.64 132.046 17.64C131.406 17.64 130.813 17.7867 130.266 18.08C129.719 18.36 129.279 18.7733 128.946 19.32C128.626 19.8533 128.466 20.5 128.466 21.26V22.18C128.466 22.9133 128.633 23.54 128.966 24.06C129.299 24.58 129.739 24.98 130.286 25.26C130.833 25.54 131.419 25.68 132.046 25.68ZM146.875 27V23.8H146.555V20.1C146.555 19.3667 146.362 18.8133 145.975 18.44C145.602 18.0667 145.049 17.88 144.315 17.88C143.902 17.88 143.475 17.8867 143.035 17.9C142.595 17.9133 142.175 17.9267 141.775 17.94C141.375 17.9533 141.029 17.9733 140.735 18V16.32C141.029 16.2933 141.335 16.2733 141.655 16.26C141.989 16.2333 142.329 16.22 142.675 16.22C143.022 16.2067 143.355 16.2 143.675 16.2C144.769 16.2 145.662 16.3333 146.355 16.6C147.049 16.8533 147.562 17.2733 147.895 17.86C148.229 18.4467 148.395 19.24 148.395 20.24V27H146.875ZM143.375 27.28C142.575 27.28 141.882 27.1467 141.295 26.88C140.722 26.6 140.275 26.2 139.955 25.68C139.649 25.16 139.495 24.5333 139.495 23.8C139.495 23.04 139.662 22.4067 139.995 21.9C140.342 21.3933 140.842 21.0133 141.495 20.76C142.149 20.4933 142.935 20.36 143.855 20.36H146.755V21.8H143.775C143.002 21.8 142.409 21.9867 141.995 22.36C141.582 22.7333 141.375 23.2133 141.375 23.8C141.375 24.3867 141.582 24.86 141.995 25.22C142.409 25.58 143.002 25.76 143.775 25.76C144.229 25.76 144.662 25.68 145.075 25.52C145.489 25.3467 145.829 25.0667 146.095 24.68C146.375 24.28 146.529 23.7333 146.555 23.04L147.075 23.8C147.009 24.56 146.822 25.2 146.515 25.72C146.222 26.2267 145.809 26.6133 145.275 26.88C144.755 27.1467 144.122 27.28 143.375 27.28ZM152.039 27V12.4H153.959V27H152.039ZM150.559 13.92V12.4H153.959V13.92H150.559Z" fill="#161B26"/>
</svg>
