<svg width="67" height="67" viewBox="0 0 67 67" fill="none" xmlns="http://www.w3.org/2000/svg">
<rect width="66.2783" height="66.2783" rx="33.1391" fill="white"/>
<path fill-rule="evenodd" clip-rule="evenodd" d="M16.8267 19.0762C16.8267 18.2477 17.4982 17.5762 18.3267 17.5762L45.3267 17.5762C46.1551 17.5762 46.8267 18.2477 46.8267 19.0762C46.8267 19.9046 46.1551 20.5762 45.3267 20.5762L18.3267 20.5762C17.4982 20.5762 16.8267 19.9046 16.8267 19.0762Z" fill="#006AB4"/>
<path fill-rule="evenodd" clip-rule="evenodd" d="M16.8267 29.5762C16.8267 28.7477 17.4982 28.0762 18.3267 28.0762L36.3267 28.0762C37.1551 28.0762 37.8267 28.7477 37.8267 29.5762C37.8267 30.4046 37.1551 31.0762 36.3267 31.0762L18.3267 31.0762C17.4982 31.0762 16.8267 30.4046 16.8267 29.5762Z" fill="#006AB4"/>
<path fill-rule="evenodd" clip-rule="evenodd" d="M16.8267 40.0762C16.8267 39.2477 17.4982 38.5762 18.3267 38.5762L28.8267 38.5762C29.6551 38.5762 30.3267 39.2477 30.3267 40.0762C30.3267 40.9046 29.6551 41.5762 28.8267 41.5762L18.3267 41.5762C17.4982 41.5762 16.8267 40.9046 16.8267 40.0762Z" fill="#006AB4"/>
<path d="M38.0142 37.4512C34.8477 37.4512 32.2017 39.9267 32.2017 43.0762C32.2017 46.2256 34.8477 48.7012 38.0142 48.7012C41.1806 48.7012 43.8267 46.2256 43.8267 43.0762V34.745C44.7663 35.5415 46.0224 36.1867 47.7147 36.4574C48.5327 36.5883 49.3019 36.0313 49.4328 35.2133C49.5637 34.3952 49.0067 33.626 48.1886 33.4951C46.4086 33.2103 45.5019 32.3627 44.9338 31.5113C44.6317 31.0585 44.4139 30.5845 44.221 30.1215C44.1893 30.0454 44.1533 29.9572 44.1163 29.8667L44.1162 29.8664C44.0558 29.7185 43.9926 29.5639 43.9407 29.4435C43.8556 29.2459 43.7298 28.967 43.5587 28.7207C43.1847 28.1821 42.5041 27.9489 41.8784 28.1448C41.2526 28.3408 40.8267 28.9205 40.8267 29.5763V38.1538C39.9891 37.7051 39.0283 37.4512 38.0142 37.4512Z" fill="#006AB4"/>
</svg>
