<svg width="66" height="66" viewBox="0 0 66 66" fill="none" xmlns="http://www.w3.org/2000/svg">
<rect width="66" height="66" rx="33" fill="white"/>
<path d="M18.855 34.9541C21.071 33.4696 23.7142 33.0321 26.1821 33.6406C26.764 33.7841 27.0548 33.8561 27.0806 34.0605C27.1059 34.2648 26.8226 34.4167 26.2554 34.7207C25.8247 34.9515 25.4024 35.194 25.0923 35.3857C24.3504 35.8195 22.9524 36.636 21.9429 37.6621C21.2914 38.3243 20.4353 39.4261 20.2759 40.9404C20.2267 41.4078 20.2491 41.8552 20.3296 42.2803C20.4102 42.7059 20.45 42.9196 20.3423 43.0312C20.2346 43.1424 20.0551 43.1151 19.6968 43.0605C18.1611 42.8268 17.1227 41.99 16.271 41.0771C15.6342 40.3946 15.3056 39.6092 15.3872 38.7695C15.4638 37.9812 15.8857 37.346 16.3071 36.8818C16.9723 36.1495 17.9525 35.5289 18.5396 35.1572C18.665 35.0778 18.7724 35.0094 18.855 34.9541ZM23.9995 22.875C24.248 22.875 24.4925 22.8938 24.731 22.9297C25.0155 22.9725 25.1579 22.9941 25.231 23.1123C25.3038 23.2305 25.2527 23.3875 25.1509 23.7012C24.8904 24.5038 24.7495 25.3605 24.7495 26.25C24.7495 28.1099 25.3654 29.8262 26.4038 31.2061C26.6019 31.4693 26.7009 31.6009 26.6704 31.7363C26.6399 31.8716 26.5126 31.9381 26.2583 32.0713C25.5832 32.4247 24.8143 32.625 23.9995 32.625C21.3073 32.6248 19.1245 30.4423 19.1245 27.75C19.1245 25.0577 21.3073 22.8752 23.9995 22.875Z" fill="#006AB4"/>
<path d="M39.8181 33.6406C42.2861 33.032 44.9292 33.4696 47.1453 34.9541C47.2279 35.0094 47.3353 35.0778 47.4607 35.1572C48.0479 35.529 49.0289 36.1494 49.6941 36.8818C50.1156 37.3459 50.5364 37.9812 50.613 38.7695C50.6946 39.6092 50.3661 40.3946 49.7292 41.0771C48.8776 41.9899 47.8391 42.8268 46.3035 43.0605C45.9452 43.1151 45.7656 43.1425 45.658 43.0312C45.5503 42.9196 45.59 42.7059 45.6707 42.2803C45.7511 41.8552 45.7735 41.4078 45.7244 40.9404C45.565 39.426 44.7089 38.3243 44.0574 37.6621C43.0478 36.636 41.6498 35.8195 40.908 35.3857C40.5978 35.194 40.1764 34.9515 39.7458 34.7207C39.1784 34.4165 38.8943 34.2649 38.9197 34.0605C38.9454 33.8561 39.2363 33.7841 39.8181 33.6406ZM42.0007 22.875C44.693 22.8751 46.8757 25.0577 46.8757 27.75C46.8757 30.4423 44.693 32.6249 42.0007 32.625C41.186 32.625 40.4179 32.4247 39.7429 32.0713C39.4883 31.938 39.3604 31.8717 39.3298 31.7363C39.2993 31.6009 39.3984 31.4692 39.5964 31.2061C40.6348 29.8262 41.2507 28.1099 41.2507 26.25C41.2507 25.3605 41.1098 24.5038 40.8494 23.7012C40.7476 23.3875 40.6965 23.2305 40.7693 23.1123C40.8424 22.9941 40.9848 22.9725 41.2693 22.9297C41.5078 22.8938 41.7522 22.875 42.0007 22.875Z" fill="#006AB4"/>
<path d="M26.5372 36.7099C30.4939 34.2634 35.5124 34.2634 39.4691 36.7099C39.5858 36.7821 39.7335 36.8685 39.9032 36.9678L39.9033 36.9679C40.6717 37.4175 41.8915 38.1313 42.7238 38.9773C43.2466 39.5087 43.768 40.2331 43.8631 41.1363C43.9648 42.1025 43.5547 42.9969 42.7723 43.7709C41.4799 45.0495 39.8789 46.125 37.7797 46.125H28.2266C26.1274 46.125 24.5264 45.0495 23.234 43.7709C22.4516 42.9969 22.0415 42.1025 22.1432 41.1363C22.2383 40.2331 22.7597 39.5087 23.2825 38.9773C24.1148 38.1313 25.3346 37.4175 26.103 36.9679C26.2728 36.8685 26.4205 36.7821 26.5372 36.7099Z" fill="#006AB4"/>
<path d="M26.6277 26.25C26.6277 22.7292 29.4819 19.875 33.0027 19.875C36.5235 19.875 39.3777 22.7292 39.3777 26.25C39.3777 29.7708 36.5235 32.625 33.0027 32.625C29.4819 32.625 26.6277 29.7708 26.6277 26.25Z" fill="#006AB4"/>
</svg>