<svg width="32" height="32" viewBox="0 0 32 32" fill="none" xmlns="http://www.w3.org/2000/svg">
<g clip-path="url(#clip0_8313_2353)">
<path d="M0 16C0 7.16347 7.16347 0 16 0C24.8365 0 32 7.16347 32 16C32 24.8365 24.8365 32 16 32C7.16347 32 0 24.8365 0 16Z" fill="#ECECED"/>
<path d="M24.177 12.0483C23.9808 11.2943 23.4024 10.7005 22.6681 10.499C21.3373 10.1328 16.0004 10.1328 16.0004 10.1328C16.0004 10.1328 10.6634 10.1328 9.33257 10.499C8.59817 10.7005 8.01984 11.2943 7.82357 12.0483C7.46704 13.4149 7.46704 16.2661 7.46704 16.2661C7.46704 16.2661 7.46704 19.1173 7.82357 20.484C8.01984 21.238 8.59817 21.8317 9.33257 22.0333C10.6634 22.3995 16.0004 22.3995 16.0004 22.3995C16.0004 22.3995 21.3373 22.3995 22.6681 22.0333C23.4024 21.8317 23.9808 21.238 24.177 20.484C24.5337 19.1173 24.5337 16.2661 24.5337 16.2661C24.5337 16.2661 24.5337 13.4149 24.177 12.0483Z" fill="#00375D"/>
<path d="M14.4001 19.2005V13.8672L18.6668 16.5339L14.4001 19.2005Z" fill="#ECECED"/>
</g>
<defs>
<clipPath id="clip0_8313_2353">
<rect width="32" height="32" fill="white"/>
</clipPath>
</defs>
</svg>
